<svg width="43" height="42" viewBox="0 0 43 42" fill="none" xmlns="http://www.w3.org/2000/svg">
<path d="M34.0314 15.7637C34.0314 14.1592 33.7154 12.5704 33.1014 11.088C32.4873 9.60564 31.5873 8.25872 30.4528 7.12416C29.3182 5.98959 27.9713 5.08961 26.4889 4.47559C25.0065 3.86156 23.4177 3.54553 21.8132 3.54553C20.2087 3.54553 18.6199 3.86156 17.1375 4.47559C15.6552 5.08961 14.3082 5.98959 13.1737 7.12416C12.0391 8.25872 11.1391 9.60564 10.5251 11.088C9.91108 12.5704 9.59505 14.1592 9.59505 15.7637C9.59505 18.1847 10.3107 20.4363 11.5238 22.3354H11.5098C15.6291 28.7848 21.8132 38.4546 21.8132 38.4546L32.1166 22.3354H32.1044C33.3619 20.3741 34.0306 18.0934 34.0314 15.7637ZM21.8132 21.0001C20.4245 21.0001 19.0926 20.4484 18.1106 19.4664C17.1286 18.4844 16.5769 17.1525 16.5769 15.7637C16.5769 14.3749 17.1286 13.0431 18.1106 12.061C19.0926 11.079 20.4245 10.5274 21.8132 10.5274C23.202 10.5274 24.5339 11.079 25.5159 12.061C26.4979 13.0431 27.0496 14.3749 27.0496 15.7637C27.0496 17.1525 26.4979 18.4844 25.5159 19.4664C24.5339 20.4484 23.202 21.0001 21.8132 21.0001Z" fill="white"/>
</svg>
