<svg width="30" height="32" viewBox="0 0 30 32" fill="none" xmlns="http://www.w3.org/2000/svg">
<path fill-rule="evenodd" clip-rule="evenodd" d="M14.9066 12.8161C16.5699 12.8161 18.165 12.1554 19.3412 10.9793C20.5173 9.80316 21.178 8.208 21.178 6.54472C21.178 4.88144 20.5173 3.28629 19.3412 2.11017C18.165 0.934051 16.5699 0.273315 14.9066 0.273315C13.2433 0.273315 11.6482 0.934051 10.472 2.11017C9.29593 3.28629 8.63519 4.88144 8.63519 6.54472C8.63519 8.208 9.29593 9.80316 10.472 10.9793C11.6482 12.1554 13.2433 12.8161 14.9066 12.8161ZM6.01976 31.6304C2.84609 31.6304 0.172696 28.9625 1.38721 26.0304C2.1226 24.255 3.20048 22.6419 4.55931 21.2831C5.91813 19.9242 7.53129 18.8464 9.30669 18.111C11.0821 17.3756 12.9849 16.9971 14.9066 16.9971C16.8283 16.9971 18.7311 17.3756 20.5065 18.111C22.2819 18.8464 23.8951 19.9242 25.2539 21.2831C26.6127 22.6419 27.6906 24.255 28.426 26.0304C29.6405 28.9625 26.9671 31.6304 23.7934 31.6304H6.01976Z" fill="white"/>
</svg>
